<!-- Generated by IcoMoon.io -->
<svg version="1.1" xmlns="http://www.w3.org/2000/svg" width="1024" height="1024" viewBox="0 0 1024 1024">
<title></title>
<g id="icomoon-ignore">
</g>
<path d="M1024 285.153c0 17.483-6.724 33.765-18.945 45.94l-446.489 445.696c-1.593 1.63-2.949 2.902-4.4 3.945l-3.322 2.635c-13.057 12.996-28.42 19.381-44.683 19.381-16.556 0-32.036-6.528-43.588-18.364l-444.004-448.762c-11.971-12.14-18.57-28.349-18.57-45.627 0-16.895 6.405-32.854 18.017-44.933 11.649-12.006 27.897-18.917 44.55-18.917 16.45 0 32.035 6.545 43.88 18.463l400.488 404.835 411.079-410.001c11.792-11.72 27.2-18.196 43.453-18.196 17.028 0 33.006 6.921 44.987 19.442 11.31 11.916 17.544 27.734 17.544 44.46z"></path>
</svg>
