<!-- Generated by IcoMoon.io -->
<svg version="1.1" xmlns="http://www.w3.org/2000/svg" width="1024" height="1024" viewBox="0 0 1024 1024">
<title></title>
<g id="icomoon-ignore">
</g>
<path fill="#e7e7e7" d="M0 0h1024v1024h-1024z"></path>
<path fill="#ccc" d="M585.984 738.944h29.312c18.392 33.52 36.635 73.619 52.031 115.101l2.113 6.499c14.063 38.276 25.75 83.553 33.011 130.294l0.525 4.106c-57.153 18.3-122.897 28.847-191.104 28.847s-133.951-10.548-195.69-30.1l4.586 1.253c7.786-50.847 19.473-96.124 35.144-139.495l-1.608 5.095c17.51-47.983 35.752-88.082 56.603-126.561l-2.459 4.961h29.312l34.176 92.288 30.848-92.288h18.176l30.848 92.288zM406.016 236.928l62.336 62.336c4.186 4.172 6.777 9.944 6.777 16.32s-2.59 12.148-6.776 16.319l-0.001 0.001c-4.172 4.186-9.944 6.777-16.32 6.777s-12.148-2.59-16.319-6.776l-62.337-62.337c-4.186-4.172-6.777-9.944-6.777-16.32s2.59-12.148 6.776-16.319l0.001-0.001c4.172-4.186 9.944-6.777 16.32-6.777s12.148 2.59 16.319 6.776l0.001 0.001zM621.696 236.928c4.172-4.186 9.944-6.777 16.32-6.777s12.148 2.59 16.319 6.776l0.001 0.001c4.186 4.172 6.777 9.944 6.777 16.32s-2.59 12.148-6.776 16.319l-62.337 62.337c-4.172 4.186-9.944 6.777-16.32 6.777s-12.148-2.59-16.319-6.776l-0.001-0.001c-4.186-4.172-6.777-9.944-6.777-16.32s2.59-12.148 6.776-16.319l0.001-0.001z"></path>
<path fill="#ccc" d="M309.76 310.016h404.48c50.899 0 92.16 41.261 92.16 92.16v0 257.536c0 50.899-41.261 92.16-92.16 92.16v0h-404.48c-50.899 0-92.16-41.261-92.16-92.16v0-257.536c0-50.899 41.261-92.16 92.16-92.16v0zM322.56 361.216c-29.754 0.288-53.764 24.475-53.764 54.27 0 0.226 0.001 0.451 0.004 0.677v-0.034 229.632c-0.001 0.115-0.001 0.25-0.001 0.385 0 29.839 24.081 54.054 53.869 54.271h377.621c0.191 0.002 0.416 0.004 0.641 0.004 29.974 0 54.272-24.298 54.272-54.272 0-0.136-0.001-0.273-0.002-0.409v0.021-229.632c0.001-0.115 0.001-0.25 0.001-0.385 0-29.839-24.081-54.054-53.869-54.271h-0.021z"></path>
<path fill="#ccc" d="M331.264 381.952h361.472c0 0 0 0 0 0 22.718 0 41.143 18.38 41.216 41.081v215.815c-0.073 22.708-18.498 41.088-41.216 41.088 0 0 0 0 0 0h-361.472c0 0 0 0 0 0-22.718 0-41.143-18.38-41.216-41.081v-215.815c0.073-22.708 18.498-41.088 41.216-41.088 0 0 0 0 0 0v0zM331.264 392.192c0 0 0 0 0 0-17.063 0-30.903 13.796-30.976 30.841v215.815c0.073 17.052 13.913 30.848 30.976 30.848 0 0 0 0 0 0h361.472c0 0 0 0 0 0 17.063 0 30.903-13.796 30.976-30.841v-215.815c-0.073-17.052-13.913-30.848-30.976-30.848 0 0 0 0 0 0v0z"></path>
<path fill="#ccc" d="M342.144 513.28l89.6-39.68c3.023-1.547 6.594-2.454 10.377-2.454 12.795 0 23.168 10.373 23.168 23.168 0 9.71-5.973 18.025-14.446 21.47l-0.155 0.056-89.6 39.68c-3.023 1.547-6.594 2.454-10.377 2.454-12.795 0-23.168-10.373-23.168-23.168 0-9.71 5.973-18.025 14.446-21.47l0.155-0.056zM681.856 513.28c8.627 3.501 14.601 11.816 14.601 21.526 0 12.795-10.373 23.168-23.168 23.168-3.783 0-7.354-0.907-10.508-2.515l0.131 0.061-89.6-39.68c-8.627-3.501-14.601-11.816-14.601-21.526 0-12.795 10.373-23.168 23.168-23.168 3.783 0 7.354 0.907 10.508 2.515l-0.131-0.061zM481.024 613.12c-12.8 0-24.32-8.96-34.56-25.6-0.992-1.549-1.581-3.438-1.581-5.465 0-3.684 1.945-6.913 4.865-8.717l0.044-0.025c1.543-0.962 3.417-1.532 5.424-1.532 3.684 0 6.92 1.922 8.759 4.818l0.025 0.042c6.912 11.008 12.8 15.744 17.024 15.744s10.112-4.736 17.024-15.744c1.866-2.924 5.094-4.835 8.768-4.835s6.901 1.911 8.743 4.793l0.025 0.042c6.912 11.008 12.8 15.744 17.024 15.744s10.112-4.736 17.024-15.744c1.864-2.938 5.1-4.86 8.784-4.86 2.007 0 3.881 0.57 5.468 1.558l-0.044-0.026c2.963 1.829 4.909 5.059 4.909 8.743 0 2.027-0.589 3.916-1.605 5.507l0.025-0.041c-10.24 16.384-21.632 25.6-34.56 25.6-10.451-0.609-19.588-5.758-25.54-13.487l-0.060-0.081c-6.092 7.902-15.387 13.076-25.907 13.565l-0.077 0.003z"></path>
</svg>
