<!-- Generated by IcoMoon.io -->
<svg version="1.1" xmlns="http://www.w3.org/2000/svg" width="1024" height="1024" viewBox="0 0 1024 1024">
<title></title>
<g id="icomoon-ignore">
</g>
<path d="M419.574 0.024c231.777 0 419.625 185.339 419.625 413.891 0 0.089 0 0.193 0 0.298 0 103.385-38.357 197.812-101.617 269.826l0.396-0.46 275.858 280.21c6.283 6.344 10.164 15.074 10.164 24.711 0 10.015-4.192 19.052-10.917 25.449l-0.015 0.014c-6.508 6.198-15.335 10.013-25.054 10.013-10.079 0-19.2-4.102-25.784-10.727l-0.002-0.002-275.602-280.057c-71.921 58.943-164.846 94.668-266.115 94.668-0.329 0-0.658 0-0.988-0.001h0.051c-231.674 0-419.573-185.339-419.573-413.942 0-228.55 187.899-413.891 419.573-413.891zM419.574 70.986c-191.995 0-347.639 153.544-347.639 342.929 0 189.435 155.644 342.98 347.639 342.98s347.69-153.596 347.69-342.98c0-189.435-155.644-342.929-347.639-342.929z"></path>
</svg>
